<svg width="98" height="29" viewBox="0 0 98 29" fill="none" xmlns="http://www.w3.org/2000/svg">
<path d="M0.582386 28V1.81818H17.6108V5.79403H5.32528V12.902H16.7287V16.8778H5.32528V24.0241H17.7131V28H0.582386ZM28.812 28.3452C27.2693 28.3452 25.8887 27.9489 24.6699 27.1562C23.4512 26.3636 22.4881 25.2131 21.7807 23.7045C21.0733 22.196 20.7196 20.3636 20.7196 18.2074C20.7196 16.0256 21.0776 14.1847 21.7935 12.6847C22.5179 11.1761 23.4938 10.0384 24.7211 9.27131C25.9483 8.49574 27.3162 8.10795 28.8247 8.10795C29.9753 8.10795 30.9213 8.30398 31.6628 8.69602C32.4043 9.07954 32.9924 9.54403 33.427 10.0895C33.8617 10.6264 34.1983 11.1335 34.437 11.6108H34.6287V1.81818H39.2693V28H34.7182V24.9062H34.437C34.1983 25.3835 33.8532 25.8906 33.4015 26.4276C32.9497 26.956 32.3532 27.4077 31.6117 27.7827C30.8702 28.1577 29.937 28.3452 28.812 28.3452ZM30.1032 24.5483C31.0833 24.5483 31.9185 24.2841 32.6088 23.7557C33.2992 23.2187 33.8233 22.473 34.1813 21.5185C34.5392 20.5639 34.7182 19.4517 34.7182 18.1818C34.7182 16.9119 34.5392 15.8082 34.1813 14.8707C33.8318 13.9332 33.312 13.2045 32.6216 12.6847C31.9398 12.1648 31.1003 11.9048 30.1032 11.9048C29.0719 11.9048 28.2111 12.1733 27.5208 12.7102C26.8304 13.2472 26.3105 13.9886 25.9611 14.9347C25.6117 15.8807 25.437 16.9631 25.437 18.1818C25.437 19.4091 25.6117 20.5043 25.9611 21.4673C26.3191 22.4219 26.8432 23.1761 27.5336 23.7301C28.2324 24.2756 29.089 24.5483 30.1032 24.5483ZM43.4808 28V8.36364H48.1087V28H43.4808ZM45.8075 5.5767C45.0746 5.5767 44.4439 5.33381 43.9155 4.84801C43.3871 4.35369 43.1229 3.76136 43.1229 3.07102C43.1229 2.37216 43.3871 1.77983 43.9155 1.29403C44.4439 0.799715 45.0746 0.552556 45.8075 0.552556C46.549 0.552556 47.1797 0.799715 47.6996 1.29403C48.228 1.77983 48.4922 2.37216 48.4922 3.07102C48.4922 3.76136 48.228 4.35369 47.6996 4.84801C47.1797 5.33381 46.549 5.5767 45.8075 5.5767ZM61.9529 8.36364V11.9432H50.6646V8.36364H61.9529ZM53.4515 3.65909H58.0793V22.0938C58.0793 22.7159 58.1731 23.1932 58.3606 23.5256C58.5566 23.8494 58.8123 24.071 59.1276 24.1903C59.443 24.3097 59.7924 24.3693 60.1759 24.3693C60.4657 24.3693 60.7299 24.348 60.9686 24.3054C61.2157 24.2628 61.4032 24.2244 61.5311 24.1903L62.3109 27.8082C62.0637 27.8935 61.71 27.9872 61.2498 28.0895C60.7981 28.1918 60.2441 28.2514 59.5879 28.2685C58.4288 28.3026 57.3847 28.1278 56.4558 27.7443C55.5268 27.3523 54.7896 26.7472 54.2441 25.929C53.7072 25.1108 53.443 24.0881 53.4515 22.8608V3.65909ZM73.4577 28.3835C71.5401 28.3835 69.8782 27.9616 68.4719 27.1179C67.0657 26.2741 65.9748 25.0937 65.1992 23.5767C64.4321 22.0597 64.0486 20.2869 64.0486 18.2585C64.0486 16.2301 64.4321 14.4531 65.1992 12.9276C65.9748 11.402 67.0657 10.2173 68.4719 9.37358C69.8782 8.52983 71.5401 8.10795 73.4577 8.10795C75.3753 8.10795 77.0373 8.52983 78.4435 9.37358C79.8498 10.2173 80.9364 11.402 81.7035 12.9276C82.479 14.4531 82.8668 16.2301 82.8668 18.2585C82.8668 20.2869 82.479 22.0597 81.7035 23.5767C80.9364 25.0937 79.8498 26.2741 78.4435 27.1179C77.0373 27.9616 75.3753 28.3835 73.4577 28.3835ZM73.4833 24.6761C74.5231 24.6761 75.3924 24.3906 76.0912 23.8196C76.7901 23.2401 77.31 22.4645 77.6509 21.4929C78.0003 20.5213 78.175 19.4389 78.175 18.2457C78.175 17.044 78.0003 15.9574 77.6509 14.9858C77.31 14.0057 76.7901 13.2259 76.0912 12.6463C75.3924 12.0668 74.5231 11.777 73.4833 11.777C72.4179 11.777 71.5316 12.0668 70.8242 12.6463C70.1253 13.2259 69.6012 14.0057 69.2518 14.9858C68.9108 15.9574 68.7404 17.044 68.7404 18.2457C68.7404 19.4389 68.9108 20.5213 69.2518 21.4929C69.6012 22.4645 70.1253 23.2401 70.8242 23.8196C71.5316 24.3906 72.4179 24.6761 73.4833 24.6761ZM86.0747 28V8.36364H90.5619V11.6364H90.7665C91.1244 10.5028 91.7381 9.62926 92.6074 9.01562C93.4852 8.39347 94.4866 8.08239 95.6116 8.08239C95.8673 8.08239 96.1528 8.09517 96.4682 8.12074C96.792 8.13778 97.0605 8.16761 97.2736 8.21023V12.4673C97.0776 12.3991 96.7665 12.3395 96.3403 12.2884C95.9227 12.2287 95.5179 12.1989 95.1259 12.1989C94.2821 12.1989 93.5236 12.3821 92.8503 12.7486C92.1855 13.1065 91.6614 13.6051 91.2778 14.2443C90.8943 14.8835 90.7026 15.6207 90.7026 16.456V28H86.0747Z" fill="black"/>
</svg>
