<svg width="223" height="35" viewBox="0 0 223 35" fill="none" xmlns="http://www.w3.org/2000/svg">
<path d="M0.582386 0.818181H6.38636L14.1591 19.7898H14.4659L22.2386 0.818181H28.0426V27H23.4915V9.01278H23.2486L16.0128 26.9233H12.6122L5.37642 8.97443H5.13352V27H0.582386V0.818181ZM37.9334 27.3963C36.6891 27.3963 35.5684 27.1747 34.5712 26.7315C33.5826 26.2798 32.7985 25.6151 32.2189 24.7372C31.6479 23.8594 31.3624 22.777 31.3624 21.4901C31.3624 20.3821 31.5669 19.4659 31.976 18.7415C32.3851 18.017 32.9434 17.4375 33.6507 17.0028C34.3581 16.5682 35.155 16.2401 36.0414 16.0185C36.9363 15.7884 37.861 15.6222 38.8155 15.5199C39.9661 15.4006 40.8993 15.294 41.6152 15.2003C42.3311 15.098 42.851 14.9446 43.1749 14.7401C43.5073 14.527 43.6735 14.1989 43.6735 13.7557V13.679C43.6735 12.7159 43.388 11.9702 42.8169 11.4418C42.2459 10.9134 41.4235 10.6491 40.3496 10.6491C39.2161 10.6491 38.3169 10.8963 37.6522 11.3906C36.9959 11.8849 36.5527 12.4687 36.3226 13.142L32.0016 12.5284C32.3425 11.3352 32.905 10.3381 33.6891 9.53693C34.4732 8.72727 35.432 8.12216 36.5655 7.72159C37.699 7.3125 38.9519 7.10795 40.324 7.10795C41.2701 7.10795 42.2118 7.21875 43.1493 7.44034C44.0868 7.66193 44.9434 8.02841 45.7189 8.53977C46.4945 9.04261 47.1166 9.72869 47.5854 10.598C48.0627 11.4673 48.3013 12.554 48.3013 13.858V27H43.8524V24.3026H43.699C43.4178 24.848 43.0215 25.3594 42.5101 25.8366C42.0073 26.3054 41.3723 26.6847 40.6053 26.9744C39.8468 27.2557 38.9561 27.3963 37.9334 27.3963ZM39.1351 23.9957C40.0641 23.9957 40.8695 23.8125 41.5513 23.446C42.2331 23.071 42.7573 22.5767 43.1238 21.9631C43.4988 21.3494 43.6863 20.6804 43.6863 19.956V17.642C43.5414 17.7614 43.2942 17.8722 42.9448 17.9744C42.6039 18.0767 42.2203 18.1662 41.7942 18.2429C41.3681 18.3196 40.9462 18.3878 40.5286 18.4474C40.111 18.5071 39.7488 18.5582 39.4419 18.6009C38.7516 18.6946 38.1337 18.848 37.5882 19.0611C37.0428 19.2741 36.6124 19.5724 36.297 19.956C35.9817 20.331 35.824 20.8168 35.824 21.4134C35.824 22.2656 36.1351 22.9091 36.7573 23.3438C37.3794 23.7784 38.172 23.9957 39.1351 23.9957ZM52.2347 34.3636V7.36364H56.7859V10.6108H57.0543C57.293 10.1335 57.6296 9.62642 58.0643 9.08949C58.4989 8.54403 59.087 8.07954 59.8285 7.69602C60.5699 7.30398 61.516 7.10795 62.6665 7.10795C64.1836 7.10795 65.5515 7.49574 66.7702 8.27131C67.9975 9.03835 68.9691 10.1761 69.685 11.6847C70.4094 13.1847 70.7717 15.0256 70.7717 17.2074C70.7717 19.3636 70.418 21.196 69.7106 22.7045C69.0032 24.2131 68.0401 25.3636 66.8214 26.1562C65.6026 26.9489 64.2219 27.3452 62.6793 27.3452C61.5543 27.3452 60.6211 27.1577 59.8796 26.7827C59.1381 26.4077 58.5415 25.956 58.0898 25.4276C57.6466 24.8906 57.3015 24.3835 57.0543 23.9062H56.8626V34.3636H52.2347ZM56.7731 17.1818C56.7731 18.4517 56.952 19.5639 57.31 20.5185C57.6765 21.473 58.2006 22.2187 58.8824 22.7557C59.5728 23.2841 60.408 23.5483 61.3881 23.5483C62.4109 23.5483 63.2674 23.2756 63.9577 22.7301C64.6481 22.1761 65.168 21.4219 65.5174 20.4673C65.8753 19.5043 66.0543 18.4091 66.0543 17.1818C66.0543 15.9631 65.8796 14.8807 65.5302 13.9347C65.1807 12.9886 64.6609 12.2472 63.9705 11.7102C63.2802 11.1733 62.4194 10.9048 61.3881 10.9048C60.3995 10.9048 59.56 11.1648 58.8697 11.6847C58.1793 12.2045 57.6552 12.9332 57.2972 13.8707C56.9478 14.8082 56.7731 15.9119 56.7731 17.1818ZM89.5346 12.554L85.3158 13.0142C85.1965 12.5881 84.9877 12.1875 84.6894 11.8125C84.3997 11.4375 84.0076 11.1349 83.5133 10.9048C83.019 10.6747 82.4139 10.5597 81.698 10.5597C80.7349 10.5597 79.9252 10.7685 79.269 11.1861C78.6212 11.6037 78.3016 12.1449 78.3102 12.8097C78.3016 13.3807 78.5105 13.8452 78.9366 14.2031C79.3712 14.5611 80.0872 14.8551 81.0843 15.0852L84.4337 15.8011C86.2917 16.2017 87.6724 16.8366 88.5758 17.706C89.4877 18.5753 89.948 19.7131 89.9565 21.1193C89.948 22.3551 89.5857 23.446 88.8698 24.392C88.1624 25.3295 87.1781 26.0625 85.9167 26.5909C84.6553 27.1193 83.2065 27.3835 81.5701 27.3835C79.1667 27.3835 77.232 26.8807 75.7661 25.875C74.3002 24.8608 73.4266 23.4503 73.1454 21.6435L77.6582 21.2088C77.8627 22.0952 78.2974 22.7642 78.9622 23.2159C79.6269 23.6676 80.492 23.8935 81.5573 23.8935C82.6568 23.8935 83.5389 23.6676 84.2036 23.2159C84.8769 22.7642 85.2136 22.206 85.2136 21.5412C85.2136 20.9787 84.9962 20.5142 84.5616 20.1477C84.1355 19.7812 83.4707 19.5 82.5673 19.304L79.2178 18.6009C77.3343 18.2088 75.9408 17.5483 75.0374 16.6193C74.134 15.6818 73.6866 14.4972 73.6951 13.0653C73.6866 11.8551 74.0147 10.8068 74.6795 9.92045C75.3528 9.02557 76.286 8.33523 77.4792 7.84943C78.6809 7.35511 80.0658 7.10795 81.634 7.10795C83.9352 7.10795 85.7462 7.59801 87.0673 8.57812C88.3968 9.55824 89.2193 10.8835 89.5346 12.554ZM109.086 27.3835C107.296 27.3835 105.758 27.0597 104.471 26.4119C103.184 25.7642 102.191 24.8906 101.492 23.7912C100.802 22.6832 100.457 21.4347 100.457 20.0455C100.457 18.9972 100.67 18.0682 101.096 17.2585C101.531 16.4489 102.127 15.6989 102.886 15.0085C103.653 14.3182 104.539 13.6321 105.545 12.9503L110.186 9.79261C110.867 9.34943 111.383 8.88068 111.732 8.38636C112.09 7.89204 112.269 7.3125 112.269 6.64773C112.269 6.08523 112.031 5.55256 111.553 5.04972C111.085 4.54688 110.437 4.29545 109.61 4.29545C109.056 4.29545 108.566 4.42756 108.14 4.69176C107.722 4.94744 107.394 5.28409 107.156 5.7017C106.926 6.11932 106.811 6.5625 106.811 7.03125C106.811 7.60227 106.968 8.18182 107.284 8.76989C107.607 9.35795 108.025 9.96733 108.536 10.598C109.056 11.2287 109.61 11.8977 110.198 12.6051L122.484 27H117.472L107.271 15.3153C106.512 14.429 105.779 13.5554 105.072 12.6946C104.373 11.8338 103.798 10.9389 103.346 10.0099C102.903 9.07244 102.681 8.05824 102.681 6.96733C102.681 5.73153 102.967 4.62784 103.538 3.65625C104.109 2.67614 104.906 1.90483 105.928 1.34233C106.96 0.77983 108.166 0.49858 109.546 0.49858C110.927 0.49858 112.112 0.771307 113.1 1.31676C114.089 1.86221 114.852 2.58665 115.389 3.49006C115.926 4.39347 116.194 5.37784 116.194 6.44318C116.194 7.67898 115.887 8.78693 115.274 9.76705C114.66 10.7386 113.808 11.6207 112.717 12.4134L107.424 16.2869C106.555 16.9176 105.933 17.5568 105.558 18.2045C105.183 18.8437 104.995 19.3892 104.995 19.8409C104.995 20.5312 105.17 21.1577 105.519 21.7202C105.869 22.2827 106.359 22.7344 106.989 23.0753C107.629 23.4077 108.374 23.5739 109.227 23.5739C110.164 23.5739 111.089 23.3651 112.001 22.9474C112.913 22.5213 113.744 21.9162 114.494 21.1321C115.244 20.348 115.84 19.4105 116.284 18.3196C116.727 17.2202 116.948 16.0014 116.948 14.6634H120.924C120.924 16.3168 120.741 17.7571 120.374 18.9844C120.008 20.2031 119.535 21.2344 118.955 22.0781C118.376 22.9134 117.762 23.5824 117.114 24.0852C116.91 24.2301 116.714 24.375 116.526 24.5199C116.339 24.6648 116.143 24.8097 115.938 24.9545C115.018 25.7898 113.94 26.4034 112.704 26.7955C111.477 27.1875 110.271 27.3835 109.086 27.3835ZM142.428 7.36364V10.9432H131.14V7.36364H142.428ZM133.927 2.65909H138.555V21.0938C138.555 21.7159 138.649 22.1932 138.836 22.5256C139.032 22.8494 139.288 23.071 139.603 23.1903C139.918 23.3097 140.268 23.3693 140.651 23.3693C140.941 23.3693 141.205 23.348 141.444 23.3054C141.691 23.2628 141.879 23.2244 142.007 23.1903L142.786 26.8082C142.539 26.8935 142.186 26.9872 141.725 27.0895C141.274 27.1918 140.72 27.2514 140.063 27.2685C138.904 27.3026 137.86 27.1278 136.931 26.7443C136.002 26.3523 135.265 25.7472 134.72 24.929C134.183 24.1108 133.918 23.0881 133.927 21.8608V2.65909ZM145.579 27V7.36364H150.066V10.6364H150.271C150.629 9.50284 151.242 8.62926 152.111 8.01562C152.989 7.39347 153.991 7.08239 155.116 7.08239C155.371 7.08239 155.657 7.09517 155.972 7.12074C156.296 7.13778 156.565 7.16761 156.778 7.21023V11.4673C156.582 11.3991 156.271 11.3395 155.844 11.2884C155.427 11.2287 155.022 11.1989 154.63 11.1989C153.786 11.1989 153.028 11.3821 152.354 11.7486C151.69 12.1065 151.165 12.6051 150.782 13.2443C150.398 13.8835 150.207 14.6207 150.207 15.456V27H145.579ZM164.431 27.3963C163.187 27.3963 162.066 27.1747 161.069 26.7315C160.08 26.2798 159.296 25.6151 158.717 24.7372C158.146 23.8594 157.86 22.777 157.86 21.4901C157.86 20.3821 158.065 19.4659 158.474 18.7415C158.883 18.017 159.441 17.4375 160.149 17.0028C160.856 16.5682 161.653 16.2401 162.539 16.0185C163.434 15.7884 164.359 15.6222 165.313 15.5199C166.464 15.4006 167.397 15.294 168.113 15.2003C168.829 15.098 169.349 14.9446 169.673 14.7401C170.005 14.527 170.171 14.1989 170.171 13.7557V13.679C170.171 12.7159 169.886 11.9702 169.315 11.4418C168.744 10.9134 167.921 10.6491 166.847 10.6491C165.714 10.6491 164.815 10.8963 164.15 11.3906C163.494 11.8849 163.051 12.4687 162.82 13.142L158.499 12.5284C158.84 11.3352 159.403 10.3381 160.187 9.53693C160.971 8.72727 161.93 8.12216 163.063 7.72159C164.197 7.3125 165.45 7.10795 166.822 7.10795C167.768 7.10795 168.71 7.21875 169.647 7.44034C170.585 7.66193 171.441 8.02841 172.217 8.53977C172.992 9.04261 173.614 9.72869 174.083 10.598C174.56 11.4673 174.799 12.554 174.799 13.858V27H170.35V24.3026H170.197C169.916 24.848 169.519 25.3594 169.008 25.8366C168.505 26.3054 167.87 26.6847 167.103 26.9744C166.345 27.2557 165.454 27.3963 164.431 27.3963ZM165.633 23.9957C166.562 23.9957 167.367 23.8125 168.049 23.446C168.731 23.071 169.255 22.5767 169.622 21.9631C169.997 21.3494 170.184 20.6804 170.184 19.956V17.642C170.039 17.7614 169.792 17.8722 169.443 17.9744C169.102 18.0767 168.718 18.1662 168.292 18.2429C167.866 18.3196 167.444 18.3878 167.026 18.4474C166.609 18.5071 166.247 18.5582 165.94 18.6009C165.249 18.6946 164.632 18.848 164.086 19.0611C163.541 19.2741 163.11 19.5724 162.795 19.956C162.48 20.331 162.322 20.8168 162.322 21.4134C162.322 22.2656 162.633 22.9091 163.255 23.3438C163.877 23.7784 164.67 23.9957 165.633 23.9957ZM195.569 7.36364L188.576 27H183.463L176.47 7.36364H181.404L185.917 21.9503H186.122L190.647 7.36364H195.569ZM206.077 27.3835C204.108 27.3835 202.408 26.9744 200.976 26.1562C199.553 25.3295 198.457 24.1619 197.69 22.6534C196.923 21.1364 196.54 19.3509 196.54 17.2969C196.54 15.277 196.923 13.5043 197.69 11.9787C198.466 10.4446 199.548 9.25142 200.938 8.39915C202.327 7.53835 203.959 7.10795 205.834 7.10795C207.044 7.10795 208.186 7.30398 209.26 7.69602C210.342 8.07954 211.297 8.67614 212.124 9.4858C212.959 10.2955 213.615 11.3267 214.092 12.5795C214.57 13.8239 214.808 15.3068 214.808 17.0284V18.4474H198.713V15.3281H210.372C210.364 14.4418 210.172 13.6534 209.797 12.9631C209.422 12.2642 208.898 11.7145 208.225 11.3139C207.56 10.9134 206.784 10.7131 205.898 10.7131C204.952 10.7131 204.121 10.9432 203.405 11.4034C202.689 11.8551 202.131 12.4517 201.73 13.1932C201.338 13.9261 201.138 14.7315 201.129 15.6094V18.3324C201.129 19.4744 201.338 20.4545 201.756 21.2727C202.173 22.0824 202.757 22.7045 203.507 23.1392C204.257 23.5653 205.135 23.7784 206.141 23.7784C206.814 23.7784 207.423 23.6847 207.969 23.4972C208.514 23.3011 208.987 23.0156 209.388 22.6406C209.788 22.2656 210.091 21.8011 210.296 21.2472L214.617 21.733C214.344 22.875 213.824 23.8722 213.057 24.7244C212.298 25.5682 211.327 26.2244 210.142 26.6932C208.957 27.1534 207.602 27.3835 206.077 27.3835ZM222.631 0.818181V27H218.003V0.818181H222.631Z" fill="black"/>
</svg>
