<svg width="139" height="36" viewBox="0 0 139 36" fill="none" xmlns="http://www.w3.org/2000/svg">
<path d="M15.8111 9.01562C15.6918 7.89915 15.1889 7.02983 14.3026 6.40767C13.4247 5.78551 12.2827 5.47443 10.8764 5.47443C9.88778 5.47443 9.03977 5.62358 8.33239 5.92188C7.625 6.22017 7.08381 6.625 6.70881 7.13636C6.33381 7.64773 6.14205 8.23153 6.13352 8.88778C6.13352 9.43324 6.2571 9.90625 6.50426 10.3068C6.75994 10.7074 7.10511 11.0483 7.53977 11.3295C7.97443 11.6023 8.45597 11.8324 8.98438 12.0199C9.51278 12.2074 10.0455 12.3651 10.5824 12.4929L13.0369 13.1065C14.0256 13.3366 14.9759 13.6477 15.8878 14.0398C16.8082 14.4318 17.6307 14.9261 18.3551 15.5227C19.0881 16.1193 19.6676 16.8395 20.0938 17.6832C20.5199 18.527 20.733 19.5156 20.733 20.6491C20.733 22.1832 20.3409 23.5341 19.5568 24.7017C18.7727 25.8608 17.6392 26.7685 16.1562 27.4247C14.6818 28.0724 12.8963 28.3963 10.7997 28.3963C8.76278 28.3963 6.99432 28.081 5.49432 27.4503C4.00284 26.8196 2.83523 25.8991 1.99148 24.6889C1.15625 23.4787 0.704546 22.0043 0.636364 20.2656H5.30256C5.37074 21.1776 5.65199 21.9361 6.14631 22.5412C6.64063 23.1463 7.28409 23.598 8.0767 23.8963C8.87784 24.1946 9.77273 24.3438 10.7614 24.3438C11.7926 24.3438 12.696 24.1903 13.4716 23.8835C14.2557 23.5682 14.8693 23.1335 15.3125 22.5795C15.7557 22.017 15.9815 21.3608 15.9901 20.6108C15.9815 19.929 15.7813 19.3665 15.3892 18.9233C14.9972 18.4716 14.4474 18.0966 13.7401 17.7983C13.0412 17.4915 12.223 17.2187 11.2855 16.9801L8.30682 16.2131C6.15057 15.6591 4.44602 14.8196 3.19318 13.6946C1.94886 12.5611 1.3267 11.0568 1.3267 9.18182C1.3267 7.6392 1.74432 6.28835 2.57955 5.12926C3.4233 3.97017 4.5696 3.07102 6.01847 2.43182C7.46733 1.78409 9.10796 1.46023 10.9403 1.46023C12.7983 1.46023 14.4261 1.78409 15.8239 2.43182C17.2301 3.07102 18.3338 3.96165 19.1349 5.10369C19.9361 6.23721 20.3494 7.54119 20.375 9.01562H15.8111ZM32.7299 28.3835C30.7612 28.3835 29.0609 27.9744 27.6291 27.1562C26.2058 26.3295 25.1106 25.1619 24.3436 23.6534C23.5765 22.1364 23.193 20.3509 23.193 18.2969C23.193 16.277 23.5765 14.5043 24.3436 12.9787C25.1191 11.4446 26.2015 10.2514 27.5907 9.39915C28.9799 8.53835 30.612 8.10795 32.487 8.10795C33.6973 8.10795 34.8393 8.30398 35.9132 8.69602C36.9956 9.07954 37.9501 9.67614 38.7768 10.4858C39.612 11.2955 40.2683 12.3267 40.7456 13.5795C41.2228 14.8239 41.4615 16.3068 41.4615 18.0284V19.4474H25.3663V16.3281H37.0254C37.0169 15.4418 36.8251 14.6534 36.4501 13.9631C36.0751 13.2642 35.551 12.7145 34.8777 12.3139C34.2129 11.9134 33.4373 11.7131 32.551 11.7131C31.6049 11.7131 30.774 11.9432 30.0581 12.4034C29.3421 12.8551 28.7839 13.4517 28.3833 14.1932C27.9913 14.9261 27.791 15.7315 27.7825 16.6094V19.3324C27.7825 20.4744 27.9913 21.4545 28.4089 22.2727C28.8265 23.0824 29.4103 23.7045 30.1603 24.1392C30.9103 24.5653 31.7882 24.7784 32.7939 24.7784C33.4671 24.7784 34.0765 24.6847 34.622 24.4972C35.1674 24.3011 35.6404 24.0156 36.041 23.6406C36.4416 23.2656 36.7441 22.8011 36.9487 22.2472L41.2697 22.733C40.997 23.875 40.4771 24.8722 39.71 25.7244C38.9515 26.5682 37.9799 27.2244 36.7953 27.6932C35.6106 28.1534 34.2555 28.3835 32.7299 28.3835ZM53.2219 28.3835C51.2617 28.3835 49.5785 27.9531 48.1722 27.0923C46.7745 26.2315 45.6964 25.0426 44.9378 23.5256C44.1878 22 43.8128 20.2443 43.8128 18.2585C43.8128 16.2642 44.1964 14.5043 44.9634 12.9787C45.7305 11.4446 46.8128 10.2514 48.2106 9.39915C49.6168 8.53835 51.2788 8.10795 53.1964 8.10795C54.7901 8.10795 56.2006 8.40199 57.4279 8.99006C58.6637 9.5696 59.6481 10.392 60.381 11.4574C61.114 12.5142 61.5316 13.75 61.6339 15.1648H57.2106C57.0316 14.2187 56.6055 13.4304 55.9322 12.7997C55.2674 12.1605 54.3768 11.8409 53.2603 11.8409C52.3143 11.8409 51.4833 12.0966 50.7674 12.608C50.0515 13.1108 49.4932 13.8352 49.0927 14.7812C48.7006 15.7273 48.5046 16.8608 48.5046 18.1818C48.5046 19.5199 48.7006 20.6705 49.0927 21.6335C49.4847 22.5881 50.0344 23.3253 50.7418 23.8452C51.4577 24.3565 52.2972 24.6122 53.2603 24.6122C53.9421 24.6122 54.5515 24.4844 55.0884 24.2287C55.6339 23.9645 56.0898 23.5852 56.4563 23.0909C56.8228 22.5966 57.0742 21.9957 57.2106 21.2884H61.6339C61.5231 22.6776 61.114 23.9091 60.4066 24.983C59.6992 26.0483 58.7361 26.8835 57.5174 27.4886C56.2986 28.0852 54.8668 28.3835 53.2219 28.3835ZM77.2296 19.7415V8.36364H81.8574V28H77.3702V24.5099H77.1656C76.7225 25.6094 75.9938 26.5085 74.9796 27.2074C73.9739 27.9062 72.7338 28.2557 71.2594 28.2557C69.9725 28.2557 68.8347 27.9702 67.846 27.3991C66.8659 26.8196 66.0989 25.9801 65.5449 24.8807C64.9909 23.7727 64.7139 22.4347 64.7139 20.8665V8.36364H69.3418V20.1506C69.3418 21.3949 69.6827 22.3835 70.3645 23.1165C71.0463 23.8494 71.9412 24.2159 73.0492 24.2159C73.731 24.2159 74.3915 24.0497 75.0307 23.7173C75.6699 23.3849 76.194 22.8906 76.6031 22.2344C77.0208 21.5696 77.2296 20.7386 77.2296 19.7415ZM85.8963 28V8.36364H90.3835V11.6364H90.588C90.946 10.5028 91.5596 9.62926 92.429 9.01562C93.3068 8.39347 94.3082 8.08239 95.4332 8.08239C95.6889 8.08239 95.9744 8.09517 96.2897 8.12074C96.6136 8.13778 96.8821 8.16761 97.0951 8.21023V12.4673C96.8991 12.3991 96.588 12.3395 96.1619 12.2884C95.7443 12.2287 95.3395 12.1989 94.9474 12.1989C94.1037 12.1989 93.3451 12.3821 92.6718 12.7486C92.0071 13.1065 91.4829 13.6051 91.0994 14.2443C90.7159 14.8835 90.5241 15.6207 90.5241 16.456V28H85.8963ZM99.4497 28V8.36364H104.078V28H99.4497ZM101.776 5.5767C101.043 5.5767 100.413 5.33381 99.8844 4.84801C99.356 4.35369 99.0918 3.76136 99.0918 3.07102C99.0918 2.37216 99.356 1.77983 99.8844 1.29403C100.413 0.799715 101.043 0.552556 101.776 0.552556C102.518 0.552556 103.149 0.799715 103.668 1.29403C104.197 1.77983 104.461 2.37216 104.461 3.07102C104.461 3.76136 104.197 4.35369 103.668 4.84801C103.149 5.33381 102.518 5.5767 101.776 5.5767ZM117.922 8.36364V11.9432H106.633V8.36364H117.922ZM109.42 3.65909H114.048V22.0938C114.048 22.7159 114.142 23.1932 114.33 23.5256C114.526 23.8494 114.781 24.071 115.097 24.1903C115.412 24.3097 115.761 24.3693 116.145 24.3693C116.435 24.3693 116.699 24.348 116.937 24.3054C117.185 24.2628 117.372 24.2244 117.5 24.1903L118.28 27.8082C118.033 27.8935 117.679 27.9872 117.219 28.0895C116.767 28.1918 116.213 28.2514 115.557 28.2685C114.398 28.3026 113.354 28.1278 112.425 27.7443C111.496 27.3523 110.758 26.7472 110.213 25.929C109.676 25.1108 109.412 24.0881 109.42 22.8608V3.65909ZM123.949 35.3636C123.318 35.3636 122.734 35.3125 122.197 35.2102C121.669 35.1165 121.247 35.0057 120.932 34.8778L122.005 31.2727C122.679 31.4688 123.28 31.5625 123.808 31.554C124.336 31.5455 124.801 31.3793 125.201 31.0554C125.611 30.7401 125.956 30.2116 126.237 29.4702L126.633 28.4091L119.513 8.36364H124.422L128.947 23.1932H129.152L133.69 8.36364H138.612L130.75 30.3778C130.383 31.4176 129.897 32.3082 129.292 33.0497C128.687 33.7997 127.946 34.3707 127.068 34.7628C126.199 35.1634 125.159 35.3636 123.949 35.3636Z" fill="black"/>
</svg>
