<svg width="16" height="16" viewBox="0 0 16 16" fill="none" xmlns="http://www.w3.org/2000/svg">
<g clip-path="url(#clip0_3918_404399)">
<path d="M16 8C16 12.4183 12.4183 16 8 16C3.58175 16 0 12.4183 0 8C0 8.00187 8 0.00090625 8 0C12.4183 0 16 3.58175 16 8Z" fill="#0052B4"/>
<path d="M7.97852 8.00033H7.99996C7.99996 7.99306 7.99996 7.98611 7.99996 7.97888C7.99283 7.98605 7.98569 7.99319 7.97852 8.00033Z" fill="#F0F0F0"/>
<path d="M7.99981 4.17439C7.99981 2.76674 7.99981 1.84433 7.99981 0.000488281H7.99847C3.58081 0.00120703 -0.000183105 3.58261 -0.000183105 8.00046H4.17372V5.65008L6.52409 8.00046H7.97844C7.98559 7.99333 7.99272 7.98621 7.99984 7.97905C7.99984 7.44008 7.99984 6.95918 7.99984 6.5248L5.64944 4.17439H7.99981Z" fill="#F0F0F0"/>
<path d="M4.04739 1.04382C2.79617 1.75629 1.75599 2.79648 1.04352 4.0477V8.00036H3.13049V3.13082V3.13079H8.00005C8.00005 2.47257 8.00005 1.84551 8.00005 1.04382H4.04739Z" fill="#D80027"/>
<path d="M8.00025 7.01658L5.15797 4.17433H4.17419C4.17419 4.1743 4.17419 4.17433 4.17419 4.17433L8.00022 8.00036H8.00025C8.00025 8.00036 8.00025 7.32208 8.00025 7.01658Z" fill="#D80027"/>
<path d="M4.82504 9.39099L5.26411 10.3091L6.25557 10.0799L5.81157 10.9956L6.60889 11.6279L5.61617 11.8516L5.61895 12.8692L4.82504 12.2326L4.03117 12.8692L4.03395 11.8516L3.0412 11.6279L3.83854 10.9956L3.39448 10.0799L4.38601 10.3091L4.82504 9.39099Z" fill="#F0F0F0"/>
<path d="M11.9781 11.1302L12.1976 11.5893L12.6934 11.4747L12.4713 11.9325L12.87 12.2487L12.3736 12.3606L12.375 12.8694L11.9781 12.551L11.5811 12.8694L11.5825 12.3606L11.0862 12.2487L11.4848 11.9325L11.2628 11.4747L11.7586 11.5893L11.9781 11.1302Z" fill="#F0F0F0"/>
<path d="M9.93564 6.26099L10.1551 6.72005L10.6509 6.60542L10.4289 7.06327L10.8275 7.37942L10.3312 7.4913L10.3325 8.00011L9.93564 7.68177L9.5387 8.00011L9.54004 7.4913L9.0437 7.37942L9.44236 7.06327L9.22036 6.60542L9.71611 6.72005L9.93564 6.26099Z" fill="#F0F0F0"/>
<path d="M11.9781 3.47839L12.1976 3.93746L12.6934 3.82286L12.4714 4.28071L12.87 4.59683L12.3736 4.70874L12.375 5.21755L11.9781 4.89921L11.5811 5.21755L11.5825 4.70874L11.0862 4.59683L11.4848 4.28071L11.2628 3.82286L11.7586 3.93746L11.9781 3.47839Z" fill="#F0F0F0"/>
<path d="M13.7614 5.56519L13.9809 6.02425L14.4767 5.90962L14.2547 6.36747L14.6533 6.68362L14.157 6.79553L14.1583 7.30431L13.7614 6.986L13.3645 7.30431L13.3659 6.79553L12.8695 6.68362L13.2682 6.36747L13.0462 5.90962L13.5419 6.02425L13.7614 5.56519Z" fill="#F0F0F0"/>
<path d="M12.4862 8.00024L12.6588 8.53168H13.2176L12.7655 8.86015L12.9383 9.39156L12.4862 9.06312L12.0341 9.39156L12.2068 8.86015L11.7547 8.53168H12.3135L12.4862 8.00024Z" fill="#F0F0F0"/>
</g>
<defs>
<clipPath id="clip0_3918_404399">
<rect width="16" height="16" fill="white"/>
</clipPath>
</defs>
</svg>
